# xmcd
#
# Track frame offsets:
#	150
#	14212
#	29495
#	42110
#	58447
#	75930
#	93420
#	106002
#	123020
#	135727
#	152485
#	166190
#	185992
#	201207
#	212567
#	231275
#	246170
#
# Disc length: 3515 seconds
#
# Revision: 0
# Processed by: cddbd v1.5.2PL0 Copyright (c) Steve Scherf et al.
# Submitted via: EasyCDDAExtractor 16.0.6.1
#
DISCID=e40db911
DTITLE=Συλλογικός δίσκος - Ρεμπέτικο στου Θωμά 1-Απόψε στου Θωμά
DYEAR=2001
DGENRE=Ρεμπέτικη
TTITLE0=Χριστοπούλου Χρυσούλα-χορωδία - Στου Θωμά [Σ. Ξαρχάκος-Κ. Φέρρης]
TTITLE1=Ξηντάρης Γιώργος-Χριστοπούλου Χρυσούλα - Κάτσε ν' ακούσεις μιά πενιά [
TTITLE1=Β. Τσιτσάνης]
TTITLE2=Τσίγκος Κώστας-Μαραγκόπουλος Νίκος - Μπουζούκι μου διπλόχορδο [Μ. Βαμβ
TTITLE2=ακάρης]
TTITLE3=Ξηντάρης Γιώργος - Φωνογραφιτζήδες [Γ. Μπάτης]
TTITLE4=Τσίγκος Κώστας-Μαραγκόπουλος Νίκος - Το καπηλειό [Γ. Μητσάκης]
TTITLE5=Χριστοπούλου Χρυσούλα - Το παλιό μπαγλαμαδάκι [Μ. Χιώτης]
TTITLE6=Μαραγκόπουλος Νίκος-χορωδία - Ο πασάς [Α. Χατζηχρήστος-Χ. Βασιλειάδης]
TTITLE7=Τσαουσάκης Δημήτρης - Φάνταζες σαν πριγκηπέσσα [Β. Τσιτσάνης]
TTITLE8=Μαραγκόπουλος Νίκος-χορωδία - Η πεντάμορφη [Α. Χατζηχρήστος]
TTITLE9=Ξηντάρης Γιώργος-Χριστοπούλου Χρυσούλα - Ντυμένη σαν αρχόντισσα [Σ. Κη
TTITLE9=ρομύτης]
TTITLE10=Μαραγκόπουλος Νίκος - Είσαι αριστοκράτισσα κι ωραία [Β. Τσιτσάνης-Χ. 
TTITLE10=Βασιλειάδης]
TTITLE11=Μαραγκόπουλος Νίκος - Μού σπάσανε τον μπαγλαμά [Α. Καλδάρας]
TTITLE12=Χορωδία - Απόψε στις ακρογιαλιές [Β. Τσιτσάνης]
TTITLE13=Χορωδία - Εβίβα ρεμπέτες Α. Καλδάρας-Ε. Παπαγιανοπούλου]
TTITLE14=Τσαουσάκης Δημήτρης-Λεονάρδου Σωτηρία - Το κορίτσι απόψε θέλει [Χ. Κο
TTITLE14=λοκοτρώνης-Γ. Τατασσόπουλος]
TTITLE15=Χριστοπούλου Χρυσούλα - Το μπουζούκι στο Παρίσι [Μ. Βαμβακάρης]
TTITLE16=Ξηντάρης Γιώργος - Μανές της καληνύχτας [άγνωστος, ακ. Λ. Κουλαξίζης]
EXTD=
EXTT0=
EXTT1=
EXTT2=
EXTT3=
EXTT4=
EXTT5=
EXTT6=
EXTT7=
EXTT8=
EXTT9=
EXTT10=
EXTT11=
EXTT12=
EXTT13=
EXTT14=
EXTT15=
EXTT16=
PLAYORDER=
